<svg enable-background="new 0 0 674 300" viewBox="0 0 674 300" xmlns="http://www.w3.org/2000/svg"><g transform="translate(14 15)"><g><g transform="translate(0 55)"><ellipse cx="80.2" cy="79.9" fill="#fff" rx="80.2" ry="79.9" stroke="#d95444" stroke-width="13"/><g fill="#aa4033" transform="translate(47.000223 50.660633)"><path d="m8.5 4.5c27 5.2 11.2 33.3.3 1.4z"/><path d="m8.5 52.2c27-5.2 11.2-33.3.3-1.4z"/><path d="m0 29.3c21.3-17.3 32.7 12.8 1.3.7z"/></g><path d="m82 5c41.1.8 74.2 34.4 74.2 75.7s-33.1 74.9-74.2 75.7z" fill="#d95444"/></g><path d="m0 0s25.1.3 31.8 6.9 6.9 31.7 6.9 31.7-25.3-3.2-31.8-9.6-6.9-29-6.9-29z" fill="#47a15e" transform="matrix(-1 0 0 1 132.706066 0)"/><path d="m0 37.7c.1-4.5 1-24.9 6.9-30.8 6.3-6.3 29.4-6.9 31.6-6.9l-38.1 38.1z" fill="#63dd82" transform="translate(94)"/><path d="m81 3c2.2 0 4 1.8 4 4v28c0 2.2-1.8 4-4 4-2.2 0-4-1.8-4-4v-28c0-2.2 1.8-4 4-4z" fill="#8b572a"/></g><g enable-background="new" fill="#d95444"><path d="m276.5 113.6c-3.3-2-6.7-3.7-10.2-5.2-3-1.3-6.3-2.5-9.9-3.7-3.7-1.1-7.2-1.7-10.7-1.7-2.8 0-5.1.4-6.8 1.3s-2.5 2.4-2.5 4.4c0 1.5.5 2.8 1.5 3.8s2.4 1.9 4.3 2.7 4.1 1.6 6.8 2.4 5.7 1.7 9.1 2.8c5.4 1.6 10.2 3.4 14.5 5.4s8 4.3 11.1 7 5.4 5.9 7.1 9.8c1.6 3.8 2.5 8.5 2.5 13.9 0 7-1.3 12.9-3.9 17.6-2.6 4.8-6 8.6-10.2 11.4s-9 4.9-14.3 6.1c-5.3 1.3-10.6 1.9-16 1.9-4.3 0-8.6-.3-13.1-1s-8.9-1.6-13.4-2.8c-4.4-1.2-8.7-2.6-12.8-4.3-4.1-1.6-7.9-3.5-11.4-5.6l13.8-28c3.8 2.4 7.8 4.5 12 6.4 3.5 1.6 7.5 3.1 11.9 4.4s8.9 2 13.5 2c3.5 0 5.9-.5 7.3-1.4s2-2.2 2-3.7c0-1.6-.7-3-2-4.2-1.4-1.1-3.3-2.2-5.7-3-2.4-.9-5.2-1.7-8.3-2.6s-6.4-1.9-9.9-3.1c-5.1-1.7-9.6-3.6-13.3-5.7-3.7-2-6.8-4.3-9.2-6.9s-4.2-5.5-5.3-8.8-1.7-7.1-1.7-11.3c0-6.4 1.2-12.1 3.5-17.1 2.3-4.9 5.5-9 9.6-12.3 4-3.3 8.7-5.8 13.9-7.5s10.7-2.5 16.5-2.5c4.3 0 8.4.4 12.5 1.2 4 .8 8 1.9 11.7 3.1 3.8 1.3 7.3 2.6 10.6 4.1s6.2 2.9 8.9 4.2z"/><path d="m397.9 103.4h-33.5v88.6h-32v-88.6h-33.6v-27.8h99.1z"/><path d="m409.5 192v-116.4h32v116.4z"/><path d="m455.1 132.8c0-7.1 1.3-14.1 4-21s6.6-13.1 11.7-18.5c5.1-5.5 11.4-9.9 18.7-13.3s15.7-5.1 25.1-5.1c11.3 0 21 2.3 29.3 7 8.3 4.6 14.4 10.8 18.5 18.5l-24.4 17.4c-1.1-2.8-2.5-5.2-4.3-7.1s-3.8-3.3-6-4.4-4.5-1.9-6.8-2.3c-2.4-.4-4.6-.7-6.8-.7-4.6 0-8.6.9-11.9 2.7s-6.1 4.2-8.2 7.1-3.7 6.2-4.8 9.8c-1 3.7-1.6 7.3-1.6 10.9 0 4 .6 7.9 1.8 11.6s3 7 5.2 9.8c2.3 2.8 5.1 5.1 8.4 6.8s7.1 2.5 11.2 2.5c2.2 0 4.4-.2 6.7-.7s4.5-1.3 6.6-2.5c2.1-1.1 4-2.6 5.7-4.4s3-4 4-6.6l26.1 15.6c-1.8 4.3-4.4 8.1-8 11.5s-7.6 6.2-12.1 8.5-9.4 4-14.6 5.2-10.2 1.8-15.2 1.8c-8.6 0-16.5-1.7-23.7-5.2-7.2-3.4-13.3-8-18.5-13.7s-9.2-12.1-12.1-19.4c-2.6-7-4-14.4-4-21.8z"/><path d="m607.3 193.6c-7.5 0-14.9-1.2-22.1-3.7s-13.3-6-18.4-10.7l10.7-18.7c5.4 3.6 10.5 6.4 15.5 8.4s9.5 3 13.7 3c4.4 0 6.6-1.4 6.6-4.1 0-1.5-.8-2.8-2.5-3.9s-5-2.3-9.9-3.8c-6.1-1.7-11.2-3.5-15.3-5.2s-7.4-3.5-10-5.5-4.4-4.2-5.5-6.6-1.6-5.2-1.6-8.5c0-4.4.9-8.4 2.6-12.1s4.2-6.9 7.3-9.7c3.1-2.7 6.8-4.8 11.2-6.3 4.3-1.5 9-2.2 14.2-2.2 6.3 0 12.4.8 18.1 2.5 5.7 1.6 11.5 5 17.3 10l-11.8 18.7c-5.4-3.5-9.8-6-13.4-7.5s-7-2.2-10.2-2.2c-1.9 0-3.4.4-4.6 1.1s-1.8 1.8-1.8 3.4.9 3 2.6 4 5.2 2.2 10.3 3.5c6.2 1.6 11.5 3.4 15.7 5.2 4.3 1.8 7.7 3.8 10.2 5.9 2.6 2.1 4.4 4.5 5.5 7.2s1.6 5.8 1.6 9.3c0 4.5-.8 8.5-2.5 12-1.6 3.5-4 6.5-7.1 9s-6.9 4.4-11.3 5.7c-4.5 1.2-9.5 1.8-15.1 1.8z"/></g></g></svg>