<svg height="638" viewBox="0 0 500 638" width="500" xmlns="http://www.w3.org/2000/svg"><g fill="none" fill-rule="evenodd"><g transform="translate(19 158.348837)"><ellipse cx="230.670294" cy="230.078059" rx="230.670294" ry="230.078059" stroke="#d95444" stroke-width="37.44"/><g fill="#d95444" fill-rule="nonzero"><g transform="translate(135.220517 148.254722)"><path d="m15.9082976 34.2470453c61.3702801-49.9427105 94.1875874 36.9848363 3.6262628 1.8951209z" transform="matrix(.64278761 .76604444 -.76604444 .64278761 40.492488 -23.740534)"/><path d="m15.9082963 129.451761c61.3702799-49.9427107 94.1875877 36.984836 3.6262628 1.895121z" transform="matrix(.64278761 -.76604444 -.76604444 -.64278761 113.423531 243.237547)"/><path d="m0 81.8494034c61.37028-49.9427102 94.1875872 36.9848366 3.62626282 1.8951209z"/></g><path d="m235.915528 14.3953488c118.299042 2.3698795 213.46929 99.0766242 213.46929 218.0274192 0 118.950794-95.170248 215.657541-213.46929 218.027419z"/></g></g><g fill="#d95444" fill-rule="nonzero"><g transform="translate(287.962733)"><path d="m0 0s72.3175787.72837124 91.4727029 19.8343155c19.1551241 19.1059441 19.8853701 91.2378515 19.8853701 91.2378515s-72.755662-9.099056-91.4727028-27.7680421c-18.71704078-18.6689856-19.8853702-83.3041249-19.8853702-83.3041249z" transform="matrix(-1 0 0 1 112.835092 0)"/><path d="m.05406189 108.468689c.34890643-13.0838227 2.84977671-71.6964412 19.83130831-88.6343735 18.2037603-18.15702295 84.4203498-19.71663181 90.9529098-19.82676312l-109.58404185 109.66216862z" transform="translate(1.477019)"/></g><rect height="103.646512" rx="11.508075" width="23.016149" x="240.530435" y="8.637209"/></g></g></svg>